Coordinates
version=1
nRows=8
nColumns=36
inDegrees=yes

Units are S.I. units (second, meters, Newtons, ...)
If the header above contains a line with 'inDegrees', this indicates whether rotational values are in degrees (yes) or radians (no).

endheader
time	pelvis_tilt	pelvis_list	pelvis_rotation	pelvis_tx	pelvis_ty	pelvis_tz	hip_flexion_r	hip_adduction_r	hip_rotation_r	knee_angle_r	knee_angle_r_beta	ankle_angle_r	subtalar_angle_r	mtp_angle_r	hip_flexion_l	hip_adduction_l	hip_rotation_l	knee_angle_l	knee_angle_l_beta	ankle_angle_l	subtalar_angle_l	mtp_angle_l	lumbar_extension	lumbar_bending	lumbar_rotation	arm_flex_r	arm_add_r	arm_rot_r	elbow_flex_r	pro_sup_r	arm_flex_l	arm_add_l	arm_rot_l	elbow_flex_l	pro_sup_l
      1.03333330	     -2.98424541	      2.07259801	     -3.43811718	      0.81411789	      0.93579073	     -0.47015149	      5.75925838	     -2.76771792	      2.67050312	      7.67309728	      0.13392081	      8.10896239	     -7.14647175	     -7.49473823	      5.12192631	     -0.09389782	     -2.11179965	      6.91406034	      0.12067312	      9.31926497	      2.07396352	     -7.49473823	    -10.44273664	      1.39070451	      0.54594696	     31.64941676	    -10.32564946	     71.57230240	    127.56681992	    103.49685522	     27.69069357	     -9.18275061	     41.71567023	    122.40383662	    101.68423661
      1.05000000	     -4.25363970	      2.07443905	     -3.22908004	      0.80366510	      0.93460879	     -0.47147965	      7.80437961	     -2.86638566	      2.39935351	      8.45813504	      0.14762231	      7.99370790	     -6.95915379	     -7.49486016	      7.15217973	     -0.06363556	     -2.06850845	      7.60806576	      0.13278580	      9.73573351	      2.21482210	     -7.49486016	    -10.13760184	      1.17138155	      0.75804354	     30.76218758	     -9.82718678	     72.45606347	    127.05294684	    103.72718058	     27.04475939	    -10.02178397	     43.11819190	    124.44238538	    101.99628940
      1.06666670	     -4.49831705	      1.91123868	     -3.08518271	      0.80422918	      0.93490012	     -0.47205388	      8.45328558	     -2.85112497	      2.21254710	      8.73292637	      0.15241832	      7.71067474	     -6.88543029	     -7.49487776	      7.79487261	     -0.13177547	     -1.93042268	      7.82206638	      0.13652081	      9.77769214	      2.23446175	     -7.49487776	    -11.08415111	      0.88501934	      1.34372901	     30.92290198	     -9.67318085	     72.11882307	    126.25960389	    103.74869970	     26.59562256	    -10.35030718	     43.36555096	    124.79486187	    102.04515473
      1.08333330	     -5.80572445	      1.87643542	     -2.99123477	      0.80471304	      0.93389520	     -0.47225817	     10.49656114	     -2.85859890	      2.11990431	      9.50091541	      0.16582226	      7.73902279	     -6.73337369	     -7.49648630	      9.78555855	     -0.17494618	     -1.99777402	      8.43490592	      0.14721688	     10.05583594	      2.03451619	     -7.49648630	    -10.70678380	      0.70793667	      0.78747161	     30.48967933	     -9.05202174	     72.15419430	    125.14552565	    105.30217579	     25.40020620	    -11.74903965	     43.04326794	    126.25309257	    103.61432542
      1.10000000	     -6.06644894	      1.79546143	     -2.91780372	      0.80059911	      0.93351340	     -0.47697977	     11.10515339	     -2.90329415	      2.04682730	      9.68422877	      0.16902168	      7.47043352	     -6.59214445	     -7.49649857	     10.37660842	     -0.17426646	     -1.97546283	      8.59276895	      0.14997211	     10.03462710	      2.05750502	     -7.49649857	    -11.72432537	      0.51834234	      0.93459319	     30.37234765	     -9.47850206	     72.03554306	    124.70024193	    105.30231348	     25.27109657	    -12.03764893	     42.92635674	    126.19687281	    103.61213808
      1.11666670	     -7.23580135	      1.77911508	     -2.76049394	      0.79637082	      0.93271558	     -0.48170586	     12.89234407	     -3.01897447	      1.74751498	     10.20779941	      0.17815971	      7.58459845	     -6.22767580	     -7.49659580	     12.10452340	     -0.14488648	     -1.99107368	      9.00416703	      0.15715236	     10.25607790	      2.07958157	     -7.49659580	    -11.71027598	      0.41927011	      0.86227906	     30.02851641	     -9.61876887	     71.06438255	    123.69789055	    105.43171832	     25.42815587	    -12.27990627	     43.07403356	    126.10821698	    103.72303643
      1.13333330	     -8.15957109	      1.80157501	     -2.62949310	      0.79230019	      0.93135983	     -0.48654044	     14.42801379	     -3.20718673	      1.59322892	     10.73452598	      0.18735282	      7.59798254	     -6.01821206	     -7.49683933	     13.54205532	     -0.01195261	     -1.93029796	      9.31061260	      0.16250085	     10.32681413	      1.92328815	     -7.49683933	    -12.07258259	      0.43375234	      0.88976209	     29.57187293	    -10.33972222	     70.89896918	    123.16517732	    104.78744517	     25.29564257	    -12.18463127	     42.42156684	    124.83363140	    102.90691663
      1.15000000	     -9.02150175	      1.78523493	     -2.55055065	      0.78824752	      0.93086018	     -0.49120884	     15.97610012	     -3.39255874	      1.34005511	     11.39491161	      0.19887873	      7.65488668	     -5.53193102	     -7.49770977	     14.99958634	      0.08612489	     -1.98483379	      9.76252142	      0.17038814	     10.40718837	      1.93461227	     -7.49770977	    -12.56402386	      0.44093180	      1.19237112	     29.37954095	    -11.23984633	     71.04634872	    123.34396379	    107.25501872	     25.71377375	    -11.90348536	     42.47623614	    124.01480222	    104.13453026
